<?xml version="1.0" encoding="UTF-8" standalone="no"?>
<!DOCTYPE svg PUBLIC "-//W3C//DTD SVG 1.1//EN"
 "http://www.w3.org/Graphics/SVG/1.1/DTD/svg11.dtd">
<!-- Generated by graphviz version 2.40.1 (20161225.0304)
 -->
<!-- Title: dependencies Pages: 1 -->
<svg width="504pt" height="211pt"
 viewBox="0.00 0.00 504.00 211.00" xmlns="http://www.w3.org/2000/svg" xmlns:xlink="http://www.w3.org/1999/xlink">
<g id="graph0" class="graph" transform="scale(1 1) rotate(0) translate(4 207)">
<title>dependencies</title>
<polygon fill="#ffffff" stroke="transparent" points="-4,4 -4,-207 500,-207 500,4 -4,4"/>
<text text-anchor="start" x="227.0091" y="-42.4" font-family="sans-serif" font-weight="bold" font-size="14.00" fill="#000000">Legend</text>
<polygon fill="#ffffb3" stroke="transparent" points="14,-10 14,-30 34,-30 34,-10 14,-10"/>
<text text-anchor="start" x="37.629" y="-15.4" font-family="sans-serif" font-size="14.00" fill="#000000"> &#160;Declarations</text>
<polygon fill="#8dd3c7" stroke="transparent" points="127,-10 127,-30 147,-30 147,-10 127,-10"/>
<text text-anchor="start" x="150.7251" y="-15.4" font-family="sans-serif" font-size="14.00" fill="#000000"> &#160;Module</text>
<polygon fill="#80b1d3" stroke="transparent" points="213,-10 213,-30 233,-30 233,-10 213,-10"/>
<text text-anchor="start" x="236.7812" y="-15.4" font-family="sans-serif" font-size="14.00" fill="#000000"> &#160;Bootstrap</text>
<polygon fill="#fdb462" stroke="transparent" points="310,-10 310,-30 330,-30 330,-10 310,-10"/>
<text text-anchor="start" x="333.6732" y="-15.4" font-family="sans-serif" font-size="14.00" fill="#000000"> &#160;Providers</text>
<polygon fill="#fb8072" stroke="transparent" points="406,-10 406,-30 426,-30 426,-10 406,-10"/>
<text text-anchor="start" x="429.7258" y="-15.4" font-family="sans-serif" font-size="14.00" fill="#000000"> &#160;Exports</text>
<g id="clust1" class="cluster">
<title>cluster_DataModule</title>
<polygon fill="none" stroke="#000000" stroke-dasharray="1,5" points="105.5,-70 105.5,-195 390.5,-195 390.5,-70 105.5,-70"/>
</g>
<g id="clust6" class="cluster">
<title>cluster_DataModule_providers</title>
<polygon fill="none" stroke="#000000" points="113.5,-78 113.5,-130 382.5,-130 382.5,-78 113.5,-78"/>
</g>
<!-- StateService -->
<g id="node1" class="node">
<title>StateService</title>
<ellipse fill="#fdb462" stroke="#000000" cx="315.5" cy="-104" rx="59.1026" ry="18"/>
<text text-anchor="middle" x="315.5" y="-99.8" font-family="Times,serif" font-size="14.00" fill="#000000">StateService</text>
</g>
<!-- DataModule -->
<g id="node3" class="node">
<title>DataModule</title>
<polygon fill="#8dd3c7" stroke="#000000" points="290.4762,-187 287.4762,-191 266.4762,-191 263.4762,-187 204.5238,-187 204.5238,-151 290.4762,-151 290.4762,-187"/>
<text text-anchor="middle" x="247.5" y="-164.8" font-family="Times,serif" font-size="14.00" fill="#000000">DataModule</text>
</g>
<!-- StateService&#45;&gt;DataModule -->
<g id="edge1" class="edge">
<title>StateService&#45;&gt;DataModule</title>
<path fill="none" stroke="#000000" d="M273.3436,-116.8419C273.3436,-116.8419 273.3436,-140.5231 273.3436,-140.5231"/>
<polygon fill="#000000" stroke="#000000" points="269.8437,-140.523 273.3436,-150.5231 276.8437,-140.5231 269.8437,-140.523"/>
</g>
<!-- UserService -->
<g id="node2" class="node">
<title>UserService</title>
<ellipse fill="#fdb462" stroke="#000000" cx="179.5" cy="-104" rx="58.4415" ry="18"/>
<text text-anchor="middle" x="179.5" y="-99.8" font-family="Times,serif" font-size="14.00" fill="#000000">UserService</text>
</g>
<!-- UserService&#45;&gt;DataModule -->
<g id="edge2" class="edge">
<title>UserService&#45;&gt;DataModule</title>
<path fill="none" stroke="#000000" d="M221.1161,-116.8419C221.1161,-116.8419 221.1161,-140.5231 221.1161,-140.5231"/>
<polygon fill="#000000" stroke="#000000" points="217.6162,-140.523 221.1161,-150.5231 224.6162,-140.5231 217.6162,-140.523"/>
</g>
</g>
</svg>
