<?xml version="1.0" encoding="UTF-8" standalone="no"?>
<!DOCTYPE svg PUBLIC "-//W3C//DTD SVG 1.1//EN"
 "http://www.w3.org/Graphics/SVG/1.1/DTD/svg11.dtd">
<!-- Generated by graphviz version 2.40.1 (20161225.0304)
 -->
<!-- Title: dependencies Pages: 1 -->
<svg width="1567pt" height="211pt"
 viewBox="0.00 0.00 1567.00 211.00" xmlns="http://www.w3.org/2000/svg" xmlns:xlink="http://www.w3.org/1999/xlink">
<g id="graph0" class="graph" transform="scale(1 1) rotate(0) translate(4 207)">
<title>dependencies</title>
<polygon fill="#ffffff" stroke="transparent" points="-4,4 -4,-207 1563,-207 1563,4 -4,4"/>
<text text-anchor="start" x="758.5091" y="-42.4" font-family="sans-serif" font-weight="bold" font-size="14.00" fill="#000000">Legend</text>
<polygon fill="#ffffb3" stroke="transparent" points="545.5,-10 545.5,-30 565.5,-30 565.5,-10 545.5,-10"/>
<text text-anchor="start" x="569.129" y="-15.4" font-family="sans-serif" font-size="14.00" fill="#000000"> &#160;Declarations</text>
<polygon fill="#8dd3c7" stroke="transparent" points="658.5,-10 658.5,-30 678.5,-30 678.5,-10 658.5,-10"/>
<text text-anchor="start" x="682.2251" y="-15.4" font-family="sans-serif" font-size="14.00" fill="#000000"> &#160;Module</text>
<polygon fill="#80b1d3" stroke="transparent" points="744.5,-10 744.5,-30 764.5,-30 764.5,-10 744.5,-10"/>
<text text-anchor="start" x="768.2812" y="-15.4" font-family="sans-serif" font-size="14.00" fill="#000000"> &#160;Bootstrap</text>
<polygon fill="#fdb462" stroke="transparent" points="841.5,-10 841.5,-30 861.5,-30 861.5,-10 841.5,-10"/>
<text text-anchor="start" x="865.1732" y="-15.4" font-family="sans-serif" font-size="14.00" fill="#000000"> &#160;Providers</text>
<polygon fill="#fb8072" stroke="transparent" points="937.5,-10 937.5,-30 957.5,-30 957.5,-10 937.5,-10"/>
<text text-anchor="start" x="961.2258" y="-15.4" font-family="sans-serif" font-size="14.00" fill="#000000"> &#160;Exports</text>
<g id="clust1" class="cluster">
<title>cluster_DashboardModule</title>
<polygon fill="none" stroke="#000000" stroke-dasharray="1,5" points="8,-70 8,-195 1551,-195 1551,-70 8,-70"/>
</g>
<g id="clust2" class="cluster">
<title>cluster_DashboardModule_declarations</title>
<polygon fill="none" stroke="#000000" points="138,-78 138,-130 1543,-130 1543,-78 138,-78"/>
</g>
<g id="clust11" class="cluster">
<title>cluster_DashboardModule_imports</title>
<polygon fill="none" stroke="#000000" points="16,-78 16,-130 130,-130 130,-78 16,-78"/>
</g>
<!-- DashboardComponent -->
<g id="node1" class="node">
<title>DashboardComponent</title>
<polygon fill="#ffffb3" stroke="#000000" points="1534.9734,-122 1393.0266,-122 1393.0266,-86 1534.9734,-86 1534.9734,-122"/>
<text text-anchor="middle" x="1464" y="-99.8" font-family="Times,serif" font-size="14.00" fill="#000000">DashboardComponent</text>
</g>
<!-- DashboardModule -->
<g id="node9" class="node">
<title>DashboardModule</title>
<polygon fill="#8dd3c7" stroke="#000000" points="849.191,-187 846.191,-191 825.191,-191 822.191,-187 728.809,-187 728.809,-151 849.191,-151 849.191,-187"/>
<text text-anchor="middle" x="789" y="-164.8" font-family="Times,serif" font-size="14.00" fill="#000000">DashboardModule</text>
</g>
<!-- DashboardComponent&#45;&gt;DashboardModule -->
<g id="edge1" class="edge">
<title>DashboardComponent&#45;&gt;DashboardModule</title>
<path fill="none" stroke="#000000" d="M1464,-122.0109C1464,-144.4852 1464,-180 1464,-180 1464,-180 859.1985,-180 859.1985,-180"/>
<polygon fill="#000000" stroke="#000000" points="859.1985,-176.5001 849.1985,-180 859.1984,-183.5001 859.1985,-176.5001"/>
</g>
<!-- ElectricityChartComponent -->
<g id="node2" class="node">
<title>ElectricityChartComponent</title>
<polygon fill="#ffffb3" stroke="#000000" points="1375.245,-122 1204.755,-122 1204.755,-86 1375.245,-86 1375.245,-122"/>
<text text-anchor="middle" x="1290" y="-99.8" font-family="Times,serif" font-size="14.00" fill="#000000">ElectricityChartComponent</text>
</g>
<!-- ElectricityChartComponent&#45;&gt;DashboardModule -->
<g id="edge2" class="edge">
<title>ElectricityChartComponent&#45;&gt;DashboardModule</title>
<path fill="none" stroke="#000000" d="M1290,-122.1289C1290,-142.5724 1290,-173 1290,-173 1290,-173 859.4323,-173 859.4323,-173"/>
<polygon fill="#000000" stroke="#000000" points="859.4323,-169.5001 849.4323,-173 859.4323,-176.5001 859.4323,-169.5001"/>
</g>
<!-- ElectricityComponent -->
<g id="node3" class="node">
<title>ElectricityComponent</title>
<polygon fill="#ffffb3" stroke="#000000" points="1186.6429,-122 1047.3571,-122 1047.3571,-86 1186.6429,-86 1186.6429,-122"/>
<text text-anchor="middle" x="1117" y="-99.8" font-family="Times,serif" font-size="14.00" fill="#000000">ElectricityComponent</text>
</g>
<!-- ElectricityComponent&#45;&gt;DashboardModule -->
<g id="edge3" class="edge">
<title>ElectricityComponent&#45;&gt;DashboardModule</title>
<path fill="none" stroke="#000000" d="M1117,-122.2667C1117,-140.5552 1117,-166 1117,-166 1117,-166 859.1603,-166 859.1603,-166"/>
<polygon fill="#000000" stroke="#000000" points="859.1603,-162.5001 849.1603,-166 859.1602,-169.5001 859.1603,-162.5001"/>
</g>
<!-- RoomSelectorComponent -->
<g id="node4" class="node">
<title>RoomSelectorComponent</title>
<polygon fill="#ffffb3" stroke="#000000" points="1028.9284,-122 867.0716,-122 867.0716,-86 1028.9284,-86 1028.9284,-122"/>
<text text-anchor="middle" x="948" y="-99.8" font-family="Times,serif" font-size="14.00" fill="#000000">RoomSelectorComponent</text>
</g>
<!-- RoomSelectorComponent&#45;&gt;DashboardModule -->
<g id="edge4" class="edge">
<title>RoomSelectorComponent&#45;&gt;DashboardModule</title>
<path fill="none" stroke="#000000" d="M948,-122.0091C948,-138.0494 948,-159 948,-159 948,-159 859.1111,-159 859.1111,-159"/>
<polygon fill="#000000" stroke="#000000" points="859.1111,-155.5001 849.1111,-159 859.111,-162.5001 859.1111,-155.5001"/>
</g>
<!-- RoomsComponent -->
<g id="node5" class="node">
<title>RoomsComponent</title>
<polygon fill="#ffffb3" stroke="#000000" points="849.5042,-122 728.4958,-122 728.4958,-86 849.5042,-86 849.5042,-122"/>
<text text-anchor="middle" x="789" y="-99.8" font-family="Times,serif" font-size="14.00" fill="#000000">RoomsComponent</text>
</g>
<!-- RoomsComponent&#45;&gt;DashboardModule -->
<g id="edge5" class="edge">
<title>RoomsComponent&#45;&gt;DashboardModule</title>
<path fill="none" stroke="#000000" d="M789,-122.1061C789,-122.1061 789,-140.991 789,-140.991"/>
<polygon fill="#000000" stroke="#000000" points="785.5001,-140.9909 789,-150.991 792.5001,-140.991 785.5001,-140.9909"/>
</g>
<!-- SecurityCamerasComponent -->
<g id="node6" class="node">
<title>SecurityCamerasComponent</title>
<polygon fill="#ffffb3" stroke="#000000" points="710.4622,-122 533.5378,-122 533.5378,-86 710.4622,-86 710.4622,-122"/>
<text text-anchor="middle" x="622" y="-99.8" font-family="Times,serif" font-size="14.00" fill="#000000">SecurityCamerasComponent</text>
</g>
<!-- SecurityCamerasComponent&#45;&gt;DashboardModule -->
<g id="edge6" class="edge">
<title>SecurityCamerasComponent&#45;&gt;DashboardModule</title>
<path fill="none" stroke="#000000" d="M622,-122.0091C622,-138.0494 622,-159 622,-159 622,-159 718.7092,-159 718.7092,-159"/>
<polygon fill="#000000" stroke="#000000" points="718.7092,-162.5001 728.7092,-159 718.7091,-155.5001 718.7092,-162.5001"/>
</g>
<!-- TemperatureComponent -->
<g id="node7" class="node">
<title>TemperatureComponent</title>
<polygon fill="#ffffb3" stroke="#000000" points="515.3459,-122 362.6541,-122 362.6541,-86 515.3459,-86 515.3459,-122"/>
<text text-anchor="middle" x="439" y="-99.8" font-family="Times,serif" font-size="14.00" fill="#000000">TemperatureComponent</text>
</g>
<!-- TemperatureComponent&#45;&gt;DashboardModule -->
<g id="edge7" class="edge">
<title>TemperatureComponent&#45;&gt;DashboardModule</title>
<path fill="none" stroke="#000000" d="M439,-122.2667C439,-140.5552 439,-166 439,-166 439,-166 718.8329,-166 718.8329,-166"/>
<polygon fill="#000000" stroke="#000000" points="718.8329,-169.5001 728.8329,-166 718.8328,-162.5001 718.8329,-169.5001"/>
</g>
<!-- TemperatureDraggerComponent -->
<g id="node8" class="node">
<title>TemperatureDraggerComponent</title>
<polygon fill="#ffffb3" stroke="#000000" points="344.203,-122 145.797,-122 145.797,-86 344.203,-86 344.203,-122"/>
<text text-anchor="middle" x="245" y="-99.8" font-family="Times,serif" font-size="14.00" fill="#000000">TemperatureDraggerComponent</text>
</g>
<!-- TemperatureDraggerComponent&#45;&gt;DashboardModule -->
<g id="edge8" class="edge">
<title>TemperatureDraggerComponent&#45;&gt;DashboardModule</title>
<path fill="none" stroke="#000000" d="M245,-122.1289C245,-142.5724 245,-173 245,-173 245,-173 718.704,-173 718.704,-173"/>
<polygon fill="#000000" stroke="#000000" points="718.704,-176.5001 728.704,-173 718.7039,-169.5001 718.704,-176.5001"/>
</g>
<!-- ThemeModule -->
<g id="node10" class="node">
<title>ThemeModule</title>
<polygon fill="#8dd3c7" stroke="#000000" points="122.4231,-122 119.4231,-126 98.4231,-126 95.4231,-122 23.5769,-122 23.5769,-86 122.4231,-86 122.4231,-122"/>
<text text-anchor="middle" x="73" y="-99.8" font-family="Times,serif" font-size="14.00" fill="#000000">ThemeModule</text>
</g>
<!-- ThemeModule&#45;&gt;DashboardModule -->
<g id="edge9" class="edge">
<title>ThemeModule&#45;&gt;DashboardModule</title>
<path fill="none" stroke="#000000" d="M73,-122.0109C73,-144.4852 73,-180 73,-180 73,-180 718.8789,-180 718.8789,-180"/>
<polygon fill="#000000" stroke="#000000" points="718.8789,-183.5001 728.8789,-180 718.8788,-176.5001 718.8789,-183.5001"/>
</g>
</g>
</svg>
